<svg version="1.1" id="Layer_1" xmlns="http://www.w3.org/2000/svg" xmlns:xlink="http://www.w3.org/1999/xlink" x="0px" y="0px"
	 width="100%" viewBox="0 0 1130 1130" enable-background="new 0 0 1130 1130" xml:space="preserve">
<path fill="#000000" opacity="1.000000" stroke="none" 
	d="
M710.000000,1131.000000 
	C473.359406,1131.000000 237.218811,1131.000000 1.039105,1131.000000 
	C1.039105,754.401001 1.039105,377.801971 1.039105,1.101474 
	C377.557434,1.101474 754.114868,1.101474 1130.836182,1.101474 
	C1130.836182,377.666595 1130.836182,754.333313 1130.836182,1131.000000 
	C990.801697,1131.000000 850.650818,1131.000000 710.000000,1131.000000 
M503.756378,485.839294 
	C519.798157,476.593140 535.840027,467.346954 552.638367,457.664703 
	C550.335999,456.167023 549.143188,455.311127 547.878296,454.579865 
	C500.643280,427.272400 453.407745,399.965790 406.158997,372.682037 
	C366.370758,349.706207 326.563263,326.763672 286.769928,303.796631 
	C265.287537,291.397919 243.862625,278.897980 222.277954,266.680176 
	C219.826477,265.292572 215.716187,264.001160 213.714966,265.101685 
	C197.980377,273.754517 182.572174,283.000824 166.635666,292.766296 
	C166.451340,294.745941 166.113205,296.725098 166.107193,298.705261 
	C166.062149,313.535736 166.268326,328.370056 165.976547,343.194916 
	C165.881454,348.026093 167.637146,350.667633 171.752258,353.022369 
	C212.238174,376.189331 252.630814,399.519501 293.021973,422.851776 
	C361.396240,462.348755 429.748810,501.883240 498.123962,541.378723 
	C499.323822,542.071777 500.692078,542.473267 503.128265,543.488770 
	C503.128265,523.671814 503.128265,504.899841 503.756378,485.839294 
M766.654846,868.057068 
	C768.586365,867.084229 770.571960,866.205078 772.441650,865.125061 
	C834.898071,829.051636 897.314575,792.908875 959.850647,756.974304 
	C964.361633,754.382263 966.013733,751.539856 966.002380,746.372864 
	C965.843872,674.382446 965.897217,602.391479 965.882202,530.400696 
	C965.881775,528.239685 965.698792,526.078674 965.410339,523.302429 
	C963.816956,522.144592 962.309509,520.839539 960.616699,519.852234 
	C946.251770,511.473999 931.864075,503.134735 917.462585,494.819366 
	C868.450623,466.519836 819.414246,438.262360 770.448669,409.882843 
	C767.149780,407.970886 764.544800,407.886475 761.267273,409.844513 
	C749.694519,416.757965 737.988770,423.449432 726.311035,430.186157 
	C674.391968,460.137451 622.459473,490.065704 570.566406,520.061951 
	C568.940369,521.001831 567.691650,522.594299 566.077393,524.820801 
	C566.022644,525.484680 565.920105,526.148621 565.919922,526.812500 
	C565.901978,600.786499 565.909607,674.760498 565.830627,748.734436 
	C565.826477,752.657349 567.703918,754.639771 570.891357,756.473450 
	C627.052063,788.780884 683.143738,821.208252 739.289917,853.540955 
	C748.069519,858.596863 757.042847,863.316406 766.654846,868.057068 
M621.477966,417.967102 
	C631.627075,412.113342 641.776184,406.259552 652.524231,400.060364 
	C650.489685,398.628143 649.467712,397.784698 648.336243,397.130585 
	C626.587219,384.557953 604.827515,372.003754 583.065674,359.453339 
	C528.990906,328.267487 474.902588,297.105042 420.865875,265.853333 
	C417.619171,263.975586 414.934723,263.775177 411.631073,265.731812 
	C398.309296,273.621796 384.859406,281.295258 371.471802,289.074524 
	C370.006836,289.925781 368.638580,290.943542 366.742065,292.205780 
	C369.193481,293.760925 370.832367,294.885406 372.548157,295.876862 
	C425.139923,326.265350 477.733124,356.651398 530.340332,387.013153 
	C552.837463,399.997101 575.407166,412.856232 597.839844,425.950378 
	C601.478455,428.074310 604.373413,428.220123 607.886841,425.849548 
	C612.018127,423.062042 616.490662,420.780243 621.477966,417.967102 
M310.929565,548.561462 
	C374.492096,585.304810 438.054626,622.048096 502.598022,659.358398 
	C502.796356,655.858765 502.983246,654.066284 502.986115,652.273560 
	C503.009674,637.449707 502.816345,622.622192 503.105927,607.804016 
	C503.197662,603.109985 501.358307,600.601562 497.481110,598.367493 
	C422.600983,555.221985 347.781525,511.971222 272.939575,468.759369 
	C271.142731,467.721893 269.232269,466.881134 266.985535,465.753235 
	C266.593353,467.382721 266.179443,468.305328 266.177460,469.228851 
	C266.141449,485.884399 266.027039,502.542419 266.328827,519.192627 
	C266.364441,521.157532 268.296997,523.823853 270.103912,524.903381 
	C283.394287,532.843872 296.876495,540.463257 310.929565,548.561462 
z"/>
<path fill="#4A4A4A" opacity="1.000000" stroke="none" 
	d="
M566.267090,523.882507 
	C567.691650,522.594299 568.940369,521.001831 570.566406,520.061951 
	C622.459473,490.065704 674.391968,460.137451 726.311035,430.186157 
	C737.988770,423.449432 749.694519,416.757965 761.267273,409.844513 
	C764.544800,407.886475 767.149780,407.970886 770.448669,409.882843 
	C819.414246,438.262360 868.450623,466.519836 917.462585,494.819366 
	C931.864075,503.134735 946.251770,511.473999 960.616699,519.852234 
	C962.309509,520.839539 963.816956,522.144592 965.166382,523.682495 
	C963.239136,524.771484 961.457581,525.309875 959.886780,526.214233 
	C924.807739,546.411743 889.751831,566.649414 854.691772,586.879883 
	C825.111572,603.948364 795.531677,621.017456 765.642212,637.928345 
	C707.895874,604.626038 650.476929,571.450562 593.003174,538.370239 
	C584.220947,533.315430 575.185486,528.700745 566.267090,523.882507 
z"/>
<path fill="#323232" opacity="1.000000" stroke="none" 
	d="
M566.172241,524.351685 
	C575.185486,528.700745 584.220947,533.315430 593.003174,538.370239 
	C650.476929,571.450562 707.895874,604.626038 765.650757,638.388306 
	C765.954773,715.401245 765.940674,791.796387 765.926575,868.191467 
	C757.042847,863.316406 748.069519,858.596863 739.289917,853.540955 
	C683.143738,821.208252 627.052063,788.780884 570.891357,756.473450 
	C567.703918,754.639771 565.826477,752.657349 565.830627,748.734436 
	C565.909607,674.760498 565.901978,600.786499 565.919922,526.812500 
	C565.920105,526.148621 566.022644,525.484680 566.172241,524.351685 
z"/>
<path fill="#3D3D3D" opacity="1.000000" stroke="none" 
	d="
M766.290710,868.124268 
	C765.940674,791.796387 765.954773,715.401245 765.960266,638.546204 
	C795.531677,621.017456 825.111572,603.948364 854.691772,586.879883 
	C889.751831,566.649414 924.807739,546.411743 959.886780,526.214233 
	C961.457581,525.309875 963.239136,524.771484 965.261719,523.990112 
	C965.698792,526.078674 965.881775,528.239685 965.882202,530.400696 
	C965.897217,602.391479 965.843872,674.382446 966.002380,746.372864 
	C966.013733,751.539856 964.361633,754.382263 959.850647,756.974304 
	C897.314575,792.908875 834.898071,829.051636 772.441650,865.125061 
	C770.571960,866.205078 768.586365,867.084229 766.290710,868.124268 
z"/>
<path fill="#323232" opacity="1.000000" stroke="none" 
	d="
M503.128265,486.127838 
	C503.128265,504.899841 503.128265,523.671814 503.128265,543.488770 
	C500.692078,542.473267 499.323822,542.071777 498.123962,541.378723 
	C429.748810,501.883240 361.396240,462.348755 293.021973,422.851776 
	C252.630814,399.519501 212.238174,376.189331 171.752258,353.022369 
	C167.637146,350.667633 165.881454,348.026093 165.976547,343.194916 
	C166.268326,328.370056 166.062149,313.535736 166.107193,298.705261 
	C166.113205,296.725098 166.451340,294.745941 167.109650,292.620911 
	C183.556183,301.800720 199.487076,311.198151 215.508804,320.438080 
	C270.938416,352.405151 326.401459,384.314270 381.848328,416.251465 
	C422.277771,439.538666 462.701813,462.835358 503.128265,486.127838 
z"/>
<path fill="#4A4A4A" opacity="1.000000" stroke="none" 
	d="
M503.442322,485.983582 
	C462.701813,462.835358 422.277771,439.538666 381.848328,416.251465 
	C326.401459,384.314270 270.938416,352.405151 215.508804,320.438080 
	C199.487076,311.198151 183.556183,301.800720 167.323547,292.269928 
	C182.572174,283.000824 197.980377,273.754517 213.714966,265.101685 
	C215.716187,264.001160 219.826477,265.292572 222.277954,266.680176 
	C243.862625,278.897980 265.287537,291.397919 286.769928,303.796631 
	C326.563263,326.763672 366.370758,349.706207 406.158997,372.682037 
	C453.407745,399.965790 500.643280,427.272400 547.878296,454.579865 
	C549.143188,455.311127 550.335999,456.167023 552.638367,457.664703 
	C535.840027,467.346954 519.798157,476.593140 503.442322,485.983582 
z"/>
<path fill="#4A4A4A" opacity="1.000000" stroke="none" 
	d="
M621.146606,418.123108 
	C616.490662,420.780243 612.018127,423.062042 607.886841,425.849548 
	C604.373413,428.220123 601.478455,428.074310 597.839844,425.950378 
	C575.407166,412.856232 552.837463,399.997101 530.340332,387.013153 
	C477.733124,356.651398 425.139923,326.265350 372.548157,295.876862 
	C370.832367,294.885406 369.193481,293.760925 366.742065,292.205780 
	C368.638580,290.943542 370.006836,289.925781 371.471802,289.074524 
	C384.859406,281.295258 398.309296,273.621796 411.631073,265.731812 
	C414.934723,263.775177 417.619171,263.975586 420.865875,265.853333 
	C474.902588,297.105042 528.990906,328.267487 583.065674,359.453339 
	C604.827515,372.003754 626.587219,384.557953 648.336243,397.130585 
	C649.467712,397.784698 650.489685,398.628143 652.524231,400.060364 
	C641.776184,406.259552 631.627075,412.113342 621.146606,418.123108 
z"/>
<path fill="#323232" opacity="1.000000" stroke="none" 
	d="
M310.613922,548.372620 
	C296.876495,540.463257 283.394287,532.843872 270.103912,524.903381 
	C268.296997,523.823853 266.364441,521.157532 266.328827,519.192627 
	C266.027039,502.542419 266.141449,485.884399 266.177460,469.228851 
	C266.179443,468.305328 266.593353,467.382721 266.985535,465.753235 
	C269.232269,466.881134 271.142731,467.721893 272.939575,468.759369 
	C347.781525,511.971222 422.600983,555.221985 497.481110,598.367493 
	C501.358307,600.601562 503.197662,603.109985 503.105927,607.804016 
	C502.816345,622.622192 503.009674,637.449707 502.986115,652.273560 
	C502.983246,654.066284 502.796356,655.858765 502.598022,659.358398 
	C438.054626,622.048096 374.492096,585.304810 310.613922,548.372620 
z"/>
</svg>